<?xml version="1.0" standalone="no"?>
<!DOCTYPE svg PUBLIC "-//W3C//DTD SVG 20010904//EN"
 "http://www.w3.org/TR/2001/REC-SVG-20010904/DTD/svg10.dtd">
<svg version="1.0" xmlns="http://www.w3.org/2000/svg"
 width="900.000000pt" height="900.000000pt" viewBox="0 0 900.000000 900.000000"
 preserveAspectRatio="xMidYMid meet">

<g transform="translate(0.000000,900.000000) scale(0.100000,-0.100000)"
fill="#000000" stroke="none">
<path d="M0 4500 l0 -4500 4500 0 4500 0 0 4500 0 4500 -4500 0 -4500 0 0
-4500z m1848 1021 c49 -25 100 -77 119 -121 23 -53 21 -147 -4 -195 -46 -88
-123 -135 -220 -135 -106 0 -196 68 -229 174 -15 49 -16 62 -4 111 15 64 70
134 129 165 50 26 158 27 209 1z m-384 -316 c75 -49 40 -154 -55 -169 -30 -5
-51 -18 -83 -51 -41 -42 -133 -201 -123 -212 3 -2 32 12 64 33 188 121 352
172 426 133 16 -9 22 -9 25 0 7 22 33 40 48 34 8 -3 38 -40 66 -82 77 -115 73
-112 113 -95 80 33 174 5 221 -66 53 -80 39 -168 -36 -233 -88 -75 -223 -47
-277 57 -18 35 -20 114 -3 145 9 18 8 27 -4 46 l-16 24 -29 -30 c-37 -36 -75
-38 -121 -4 -63 47 -131 29 -304 -78 -151 -94 -223 -115 -286 -82 -114 59 -98
219 45 445 40 64 132 152 185 178 53 26 111 28 144 7z m734 -37 c72 -36 164
-134 206 -219 114 -230 76 -482 -100 -668 -37 -40 -81 -79 -97 -87 -58 -31
-127 14 -127 81 0 27 12 45 68 102 78 81 104 126 128 223 14 58 15 82 6 135
-20 123 -75 212 -168 271 -62 40 -83 79 -64 124 26 63 74 74 148 38z m1353
-111 c74 -50 96 -123 63 -208 -24 -58 -76 -89 -152 -89 -49 0 -63 4 -94 30
-83 68 -91 158 -23 239 46 54 147 68 206 28z m1810 -572 c5 -553 9 -632 34
-698 4 -9 2 -24 -4 -31 -16 -19 -166 -78 -188 -74 -10 1 -29 24 -41 50 l-24
47 -37 -30 c-87 -69 -238 -91 -338 -48 -142 60 -206 204 -205 459 1 160 18
246 69 343 65 123 159 177 308 177 67 0 92 -4 121 -20 20 -12 38 -19 41 -16 3
2 4 81 4 174 -1 93 3 180 8 194 8 22 21 28 103 46 51 11 104 20 118 19 l25 -2
6 -590z m950 5 c3 -322 9 -598 13 -615 4 -16 12 -47 18 -67 8 -28 8 -41 -1
-52 -16 -19 -165 -79 -188 -74 -10 2 -28 25 -41 51 l-22 48 -33 -27 c-57 -49
-129 -74 -211 -74 -40 0 -93 7 -119 16 -95 32 -172 132 -203 264 -19 79 -18
312 2 396 33 142 104 248 199 294 72 36 213 41 275 11 24 -11 45 -20 46 -18 1
1 4 86 6 189 2 119 7 191 14 198 13 13 178 49 214 47 l25 -2 6 -585z m1447
578 c9 -9 12 -74 12 -230 0 -120 2 -218 4 -218 2 0 28 12 57 28 74 38 189 43
271 12 93 -35 164 -130 196 -260 22 -91 25 -239 8 -340 -43 -245 -180 -380
-387 -380 -83 0 -122 12 -166 52 l-22 21 -17 -37 c-16 -32 -22 -36 -53 -36
-44 1 -169 34 -184 49 -8 8 -6 24 8 59 18 44 20 82 23 645 3 542 5 599 20 604
23 9 173 41 198 42 11 1 25 -4 32 -11z m-6868 -107 c0 -24 -17 -77 -42 -129
-24 -47 -20 -66 6 -27 9 14 20 25 25 25 16 0 24 -79 11 -111 -8 -19 -9 -33 -3
-42 19 -24 23 -78 8 -114 -19 -44 -19 -53 0 -53 14 0 45 -59 45 -86 0 -7 11
-30 25 -50 19 -28 25 -50 25 -90 0 -38 4 -54 13 -54 18 0 63 -49 72 -78 4 -15
12 -21 21 -18 19 7 60 -29 90 -80 18 -30 24 -56 24 -97 0 -63 -14 -80 -37 -47
-14 20 -17 21 -25 6 -12 -21 -105 -22 -156 -1 -73 31 -112 95 -57 95 14 0 25
5 25 10 0 6 -5 10 -11 10 -19 0 -94 38 -110 57 -22 25 -32 72 -19 88 8 9 1 19
-28 38 -35 23 -72 77 -72 105 0 19 16 21 43 7 37 -19 34 -5 -9 36 -70 66 -92
185 -22 122 28 -25 21 -1 -12 43 -37 48 -40 108 -9 147 16 21 18 31 10 46 -23
43 -2 161 29 161 5 0 16 -35 25 -77 9 -43 18 -82 19 -86 1 -5 8 4 16 19 12 21
12 28 3 31 -9 3 -13 28 -13 75 0 61 4 76 26 105 28 36 64 45 64 14z m1782 7
c35 -30 48 -63 48 -128 0 -36 -5 -71 -11 -77 -6 -6 -8 -16 -5 -22 13 -21 25
-11 31 27 12 67 26 112 35 112 14 0 40 -61 40 -96 0 -18 -5 -45 -12 -58 -9
-22 -8 -29 7 -46 9 -10 19 -38 22 -62 4 -36 0 -50 -26 -88 -33 -49 -33 -58 -2
-39 60 38 27 -67 -44 -138 -28 -29 -56 -53 -62 -53 -5 0 -15 10 -21 23 l-11
22 0 -25 c-1 -14 -5 -31 -10 -39 -7 -11 -12 -10 -22 8 -18 28 -29 27 -29 -4 0
-82 -36 -155 -54 -109 -10 25 -17 11 -25 -50 -8 -61 -4 -67 25 -35 10 12 32
28 47 36 22 11 26 17 17 28 -17 21 -1 62 38 96 50 44 123 89 133 83 23 -14 7
-56 -38 -101 -37 -39 -46 -54 -44 -80 3 -47 -22 -77 -92 -109 -60 -27 -61 -28
-29 -32 22 -2 32 -8 32 -20 0 -22 -61 -71 -103 -83 -47 -13 -135 -11 -140 4
-3 9 -9 7 -24 -5 -11 -10 -23 -18 -26 -18 -4 0 -7 31 -7 68 0 60 4 74 29 108
55 76 91 92 91 41 0 -25 -24 -95 -46 -139 l-15 -29 63 33 c35 18 65 34 67 35
1 1 0 7 -4 13 -5 9 -10 9 -18 1 -28 -28 -37 -11 -37 67 0 72 2 80 29 110 17
17 36 32 44 32 11 0 15 12 14 48 -2 38 4 58 26 90 15 23 27 50 27 61 0 10 7
35 16 56 14 34 17 36 31 23 8 -9 21 -46 29 -84 8 -37 16 -70 18 -72 3 -2 12
12 21 31 9 19 27 44 39 56 22 21 23 24 9 52 -16 33 -12 67 18 128 23 48 24 58
3 41 -13 -11 -16 -10 -21 8 -8 32 -23 27 -23 -8 0 -35 -24 -41 -40 -9 -7 11
-14 19 -16 16 -2 -2 9 -34 26 -70 32 -72 41 -147 16 -147 -19 0 -74 76 -88
122 -9 29 -8 46 5 85 10 30 12 52 6 58 -10 10 -12 75 -3 99 9 24 22 19 40 -16
10 -18 19 -28 21 -21 2 6 -7 33 -21 60 -32 60 -46 143 -24 143 8 0 21 -6 30
-12z m1679 -309 c83 -27 129 -61 129 -96 0 -25 -74 -163 -87 -163 -3 0 -27 13
-53 30 -98 63 -218 56 -264 -15 -34 -51 -46 -117 -46 -247 0 -113 3 -134 24
-181 32 -74 69 -99 149 -100 50 -1 73 4 120 28 42 21 63 26 74 19 18 -11 63
-118 63 -150 0 -52 -111 -95 -258 -102 -195 -8 -320 57 -395 205 -97 191 -67
498 62 654 40 48 124 103 186 122 77 23 218 21 296 -4z m2363 -33 c14 -30 26
-61 26 -68 0 -7 24 11 53 39 64 63 111 83 193 83 51 0 68 -4 90 -23 l27 -23
-33 -90 c-43 -115 -46 -119 -99 -104 -53 14 -97 2 -150 -41 l-41 -32 0 -324
c0 -250 -3 -325 -12 -328 -7 -2 -59 -6 -116 -8 -81 -3 -106 -1 -118 10 -12 12
-14 72 -14 348 0 317 -6 410 -31 461 -6 11 -9 36 -7 55 3 31 8 35 78 66 110
46 123 45 154 -21z m-3120 8 c10 -26 7 -898 -4 -914 -8 -12 -30 -14 -122 -12
-62 2 -116 7 -120 11 -4 4 -9 171 -10 371 l-3 365 -75 3 c-56 2 -78 7 -87 19
-14 18 -17 75 -7 136 l7 37 207 0 c180 0 209 -2 214 -16z m-2307 -644 c33 -15
45 -29 58 -65 10 -25 18 -62 19 -83 1 -33 -1 -37 -21 -34 -15 2 -23 -2 -23
-11 0 -19 13 -24 96 -32 l69 -7 -33 21 c-31 20 -82 106 -82 139 0 20 26 14 73
-18 48 -32 73 -76 62 -109 -8 -26 15 -28 81 -5 55 18 297 23 330 6 10 -5 38
-14 61 -19 l42 -10 -6 27 c-8 43 21 92 69 118 24 12 46 22 51 22 28 0 -31
-139 -64 -147 -10 -3 -19 -9 -19 -14 0 -11 131 0 144 11 14 13 -4 31 -25 25
-16 -5 -19 -1 -19 27 0 18 8 56 18 83 15 41 25 54 62 73 64 34 73 17 32 -61
-41 -80 -41 -92 -3 -73 55 29 237 39 228 13 -5 -18 -117 -78 -155 -84 -22 -4
-36 -14 -45 -32 -21 -44 -82 -71 -164 -71 -65 0 -79 4 -159 45 -52 27 -100 45
-121 45 -18 0 -33 -2 -33 -5 0 -3 22 -29 50 -58 30 -31 50 -61 50 -74 0 -34
-13 -28 -55 23 -54 65 -84 94 -98 94 -15 0 -59 -45 -101 -102 -15 -21 -31 -38
-37 -38 -23 0 -5 47 37 96 25 30 43 58 40 62 -6 10 -66 4 -81 -8 -5 -4 -42
-24 -81 -44 -60 -30 -81 -36 -137 -36 -36 0 -78 5 -94 11 -33 12 -83 57 -83
75 0 6 -16 14 -36 17 -37 6 -164 75 -164 89 0 4 38 8 85 8 60 0 98 -6 135 -20
27 -11 50 -16 50 -11 0 4 -14 36 -31 69 -18 33 -29 68 -26 76 8 20 5 20 54 -4z
m6031 -61 c2 -16 -10 -49 -31 -85 -19 -32 -49 -86 -67 -119 -114 -211 -153
-275 -168 -275 -23 0 -104 29 -120 43 -17 14 -12 38 33 182 19 61 45 142 57
180 33 108 31 106 172 103 l121 -3 3 -26z"/>
<path d="M4932 4470 c-86 -20 -112 -87 -112 -292 0 -164 10 -215 52 -259 24
-26 32 -29 93 -29 51 0 76 5 101 21 l34 21 0 258 0 258 -27 10 c-41 15 -104
21 -141 12z"/>
<path d="M5885 4470 c-84 -16 -115 -95 -115 -295 0 -148 14 -217 51 -255 45
-45 138 -48 202 -6 l26 18 3 242 c2 134 2 250 0 258 -6 30 -98 51 -167 38z"/>
<path d="M7861 4469 c-19 -4 -45 -16 -60 -27 l-26 -19 -3 -251 c-3 -293 -6
-282 91 -282 105 0 152 45 182 178 20 83 19 187 -2 269 -27 107 -87 151 -182
132z"/>
<path d="M786 4678 c-5 -10 -16 -18 -27 -18 -18 0 -18 -2 1 -46 22 -51 26
-124 8 -142 -9 -9 -5 -17 14 -37 15 -14 34 -43 44 -63 l18 -37 12 65 c7 36 13
74 13 85 0 18 -2 17 -22 -7 -13 -16 -29 -28 -36 -28 -23 0 -8 100 23 160 27
51 30 82 4 41 -19 -31 -36 -26 -40 12 -3 25 -6 28 -12 15z"/>
<path d="M841 4316 c-8 -9 -21 -15 -30 -12 -9 3 -3 -4 14 -17 63 -47 86 -79
83 -113 -2 -28 4 -37 45 -68 26 -20 49 -36 51 -36 4 0 -12 84 -20 109 -4 11
-8 10 -18 -5 -8 -10 -17 -16 -21 -13 -12 13 -35 114 -29 132 7 21 -12 23 -20
1 -8 -22 -29 -13 -36 16 -5 21 -6 21 -19 6z"/>
<path d="M1081 4063 c-1 -54 -17 -78 -33 -49 -11 19 -28 21 -28 4 0 -7 17 -21
38 -30 20 -10 45 -23 54 -30 24 -17 32 -4 16 24 -7 12 -20 48 -30 78 l-16 55
-1 -52z"/>
</g>
</svg>
